<svg width="32" height="32" viewBox="0 0 32 32" fill="none" xmlns="http://www.w3.org/2000/svg">
<path fill-rule="evenodd" clip-rule="evenodd" d="M20.1644 8.30588C20.1644 8.30588 23.1747 9.57072 23.4959 11.2867C23.7576 12.6847 22.2185 14.2973 21.3809 15.0566H13.1507L13.1507 15.0566L7.0137 15.0566V8.0429H0V15.0566L6.66302 15.0566V29.084H13.1507L13.1507 21.5442H18.5461L23.9904 29.0124H32L25.4369 19.9911C26.339 19.1625 28.6724 16.897 29.5452 14.8812C30.1227 13.5475 30.3342 12.5146 30.3342 10.8483C30.3342 8.91958 29.1069 7.25383 29.1069 7.25383C29.1069 7.25383 28.1425 5.60023 26.2137 4.273C24.9618 3.41156 22.6192 2.78259 22.6192 2.78259L19.8137 7.9552L20.1644 8.30588Z" fill="#5DBCFF"/>
</svg>
